<?xml version="1.0" ?><svg enable-background="new 0 0 64 64" version="1.1" viewBox="0 0 64 64" fill='#1E222F' xml:space="preserve" xmlns="http://www.w3.org/2000/svg" xmlns:xlink="http://www.w3.org/1999/xlink"><g id="Glyph"><path d="M25.464,29.206c0.825-5.984,4.771-9.943,10.648-10.644L49.412,5.155c-3.71-2.411-7.947-4.081-12.506-4.782l-24.29,24.332   l8.635,8.674L25.464,29.206z"/><path d="M64.002,31.999c0-9.798-4.408-18.562-11.344-24.432l-11.16,11.268c5.719,1.337,9.256,6.049,9.256,12.774   c0,2.492-1.405,5.927-3.222,9.328l10.158,10.143C61.655,45.753,64.002,39.15,64.002,31.999z"/><path d="M29.29,31.609c0,2.482,3.045,9.089,8.726,16.941c5.146-7.2,8.739-14.102,8.739-16.941c0-5.83-3.183-9.173-8.732-9.173   S29.29,25.78,29.29,31.609z M37.721,27.477c2.277,0,4.123,1.846,4.123,4.123s-1.846,4.123-4.123,4.123s-4.123-1.846-4.123-4.123   S35.444,27.477,37.721,27.477z"/><path d="M32.002,63.999c9.078,0,17.268-3.787,23.092-9.859l-9.624-9.609c-2.61,4.276-5.321,7.894-5.879,8.636l-1.567,2.057   l-1.557-2.057c-0.995-1.301-8.68-11.559-10.691-18.607L7.53,52.609C13.4,59.572,22.182,63.999,32.002,63.999z"/><path d="M18.41,36.194L2.323,20.034c-1.492,3.697-2.321,7.733-2.321,11.965c0,6.401,1.887,12.357,5.123,17.358L18.41,36.194z"/><path d="M4.168,16.218l5.627,5.652L31.618,0.009C19.847,0.148,9.61,6.64,4.168,16.218z"/></g></svg>