<svg xmlns="http://www.w3.org/2000/svg" width="24" height="24" viewBox="0 0 24 24" fill="none">
    <path d="M8.03135 14.0439C8.60095 14.0439 9.0627 13.5864 9.0627 13.022C9.0627 12.4575 8.60095 12 8.03135 12C7.46175 12 7 12.4575 7 13.022C7 13.5864 7.46175 14.0439 8.03135 14.0439Z" fill="black"/>
    <path d="M12 14C12.5523 14 13 13.5523 13 13C13 12.4477 12.5523 12 12 12C11.4477 12 11 12.4477 11 13C11 13.5523 11.4477 14 12 14Z" fill="black"/>
    <path d="M16.0314 14.0439C16.601 14.0439 17.0627 13.5864 17.0627 13.022C17.0627 12.4575 16.601 12 16.0314 12C15.4618 12 15 12.4575 15 13.022C15 13.5864 15.4618 14.0439 16.0314 14.0439Z" fill="black"/>
    <path d="M18.013 5H5.98698C4.33732 5 3 6.29322 3 7.8885V18.1115C3 19.7068 4.33732 21 5.98698 21H18.013C19.6627 21 21 19.7068 21 18.1115V7.8885C21 6.29322 19.6627 5 18.013 5Z" stroke="black" stroke-width="2" stroke-miterlimit="10"/>
    <path d="M8 3L8 6" stroke="black" stroke-width="2" stroke-miterlimit="10" stroke-linecap="round"/>
    <path d="M16 3L16 6" stroke="black" stroke-width="2" stroke-miterlimit="10" stroke-linecap="round"/>
    <path d="M3 9L21 9" stroke="black" stroke-width="1.5" stroke-miterlimit="10" stroke-linecap="round"/>
    <path d="M8.03135 18.0439C8.60095 18.0439 9.0627 17.5864 9.0627 17.022C9.0627 16.4575 8.60095 16 8.03135 16C7.46175 16 7 16.4575 7 17.022C7 17.5864 7.46175 18.0439 8.03135 18.0439Z" fill="black"/>
    <path d="M12.0314 18.0439C12.601 18.0439 13.0627 17.5864 13.0627 17.022C13.0627 16.4575 12.601 16 12.0314 16C11.4618 16 11 16.4575 11 17.022C11 17.5864 11.4618 18.0439 12.0314 18.0439Z" fill="black"/>
    <rect x="4" y="6" width="16" height="3" fill="black"/>
</svg>