<?xml version="1.0" encoding="UTF-8"?>
<svg id="OBJECTS" xmlns="http://www.w3.org/2000/svg" xmlns:xlink="http://www.w3.org/1999/xlink" viewBox="0 0 500 579.82">
  <defs>
    <style>
      .cls-1 {
        fill: #fff;
      }

      .cls-2 {
        fill: #fc8e44;
      }

      .cls-3 {
        fill: #fdddca;
      }

      .cls-4 {
        opacity: .7;
      }

      .cls-4, .cls-5 {
        fill: #1e222f;
      }

      .cls-6 {
        fill: #e5e9f6;
      }

      .cls-7 {
        fill: #4aa163;
      }

      .cls-8 {
        fill: #1b4b4c;
      }

      .cls-9 {
        clip-path: url(#clippath);
      }

      .cls-10 {
        fill: none;
      }
    </style>
    <clipPath id="clippath">
      <circle class="cls-10" cx="99.87" cy="97.85" r="61.85"/>
    </clipPath>
  </defs>
  <circle class="cls-6" cx="99.87" cy="97.85" r="61.85"/>
  <g class="cls-9">
    <g>
      <g>
        <path class="cls-7" d="M158.99,245.73H51.94c-.45-4.09,15.95-91.08,35.21-119.05,2.19-3.17,20.9-5.48,27.78,2.41,36.4,41.8,44.94,115.63,44.06,116.63Z"/>
        <path class="cls-6" d="M82.94,170.67h-.97v-5.49h.97v5.49Zm2.26-2.26v-.97h-5.49v.97h5.49Zm12.41-40.32h-.97v5.49h.97v-5.49Zm2.26,3.23v-.97h-5.49v.97h5.49Zm9.37,28.38h-.97v5.49h.97v-5.49Zm2.26,3.23v-.97h-5.49v.97h5.49Zm15.48,4.52h-.97v5.49h.97v-5.49Zm2.26,3.23v-.97h-5.49v.97h5.49Zm13.04,11.32h-.97v5.49h.97v-5.49Zm2.26,3.23v-.97h-5.49v.97h5.49Zm-50.15-38.28h-.97v5.49h.97v-5.49Zm2.26,3.23v-.97h-5.49v.97h5.49Zm3.71,27.41h-.97v5.49h.97v-5.49Zm2.26,3.23v-.97h-5.49v.97h5.49Zm9.37-41.14h-.97v5.49h.97v-5.49Zm2.26,3.23v-.97h-5.49v.97h5.49Zm5.42,43.59h-.97v5.49h.97v-5.49Zm2.26,3.23v-.97h-5.49v.97h5.49Zm7.55-40.03c-.19-.33-.38-.65-.57-.97-.05-.09-.1-.17-.15-.25v3.48h.97v-1.82c-.08-.15-.17-.3-.25-.44Zm-.57-.97h-2.41v.97h2.98c-.19-.33-.38-.65-.57-.97Zm-9.24,62.13h-.97v5.49h.97v-5.49Zm2.26,3.23v-.97h-5.49v.97h5.49Zm27.97-3.71h-.97v5.49h.97v-5.49Zm2.26,3.23v-.97h-5.49v.97h5.49Zm-17.43,29.4v2.74h.97v-2.74h-.97Zm-2.26,2.26v.48h5.49v-.48h-5.49Zm-68.37-44.9h-.97v5.49h.97v-5.49Zm2.26,3.23v-.97h-5.49v.97h5.49Zm15.48,4.52h-.97v5.49h.97v-5.49Zm2.26,3.23v-.97h-5.49v.97h5.49Zm16.27,8.58h-.97v5.49h.97v-5.49Zm2.26,3.23v-.97h-5.49v.97h5.49Zm32.59-24.64h-.97v5.49h.97v-5.49Zm2.26,3.23v-.97h-5.49v.97h5.49Zm12.91,32.16h-.97v5.49h.97v-5.49Zm2.26,3.23v-.97h-5.49v.97h5.49Zm-17.43-14.46h-.97v5.49h.97v-5.49Zm2.26,3.23v-.97h-5.49v.97h5.49Zm-20.55,6.75h-.97v5.49h.97v-5.49Zm2.26,3.23v-.97h-5.49v.97h5.49Zm-13.16,7.62v2.26h.97v-2.26h-.97Zm-32.95,.49v1.77h.96v-1.77h-.96Zm27.52-44.99h-.97v5.49h.97v-5.49Zm2.26,3.23v-.97h-5.49v.97h5.49Zm-46.51,18.29c-.07,.32-.13,.64-.2,.96h1.33v-.96h-1.13Zm10.52-42.92c-.17,.59-.33,1.17-.5,1.76v3.73h.97v-5.49h-.47Zm-.64,2.26c-.09,.32-.18,.65-.27,.97h3.64v-.97h-3.37Zm8.3,47.31h-.97v5.49h.97v-5.49Zm2.26,3.23v-.97h-5.49v.97h5.49Zm14.87,5.78h-.97v5.49h.97v-5.49Zm2.26,3.23v-.97h-5.49v.97h5.49Zm-36.43-3.23h-.97v5.49h.97v-5.49Zm2.26,3.23v-.97h-5.49v.97h5.49Zm24.85-52.26h-.97v5.49h.97v-5.49Zm2.26,3.23v-.97h-5.49v.97h5.49Z"/>
      </g>
      <g>
        <path class="cls-1" d="M84.62,133.91c-3.04,7.87-14.5,35.47-20.73,55.28-4.18,13.29-5.77,24.45-6.69,27.38,0,0,31.61-10.15,38.73-10.17,10.96-.03,28.54,22.86,24.23,25.73-6.78,4.51-39.1,19.85-64.91,24.66-14.03,2.62-40.46-15.21-38.37-29.39,2.93-19.9,38.88-72.34,52.56-87.21,7.1-7.72,18.88-15.87,15.18-6.28Z"/>
        <g>
          <path class="cls-7" d="M14.95,231.6c.66,14.33,18.59,26.4,28.99,27.03,17.93,1.09,71.73-14.58,71.73-14.58l-20.91-40.29s-36.6,12.42-37.53,12.77v-.02c.32-1.07,9.34-34.96,13.38-46.2,.22-.62,.46-1.25,.7-1.92,1.16-3.11,2.75-7.22,4.51-11.66l.02-.03c.97-2.46,2-5.02,3.02-7.56v-.02c4.42-10.98,8.73-21.43,8.73-21.43-6.16,1.01-12.25,4.25-22.24,14.74-9.97,10.47-51.47,65.51-50.38,89.15Z"/>
          <g>
            <g>
              <rect class="cls-6" x="77.37" y="135.23" width=".97" height="5.49"/>
              <rect class="cls-6" x="77.37" y="135.23" width=".97" height="5.49" transform="translate(215.83 60.12) rotate(90)"/>
            </g>
            <g>
              <rect class="cls-6" x="68.01" y="151.94" width=".97" height="5.49"/>
              <rect class="cls-6" x="68.01" y="151.94" width=".97" height="5.49" transform="translate(223.17 86.19) rotate(90)"/>
            </g>
            <path class="cls-6" d="M61.02,202.61c-.05,.19-.11,.39-.16,.58v-.58h.16Z"/>
            <g>
              <path class="cls-6" d="M81.82,208.16v5.43h-.96v-5.1c.33-.11,.65-.22,.96-.33Z"/>
              <rect class="cls-6" x="80.86" y="208.1" width=".97" height="5.49" transform="translate(292.18 129.5) rotate(90)"/>
            </g>
            <g>
              <rect class="cls-6" x="99.38" y="219.9" width=".97" height="5.49"/>
              <rect class="cls-6" x="99.38" y="219.9" width=".97" height="5.49" transform="translate(322.51 122.78) rotate(90)"/>
            </g>
            <g>
              <path class="cls-6" d="M106.98,243.47v3.23h-.78c-.06,.02-.13,.03-.19,.05v-3.28h.97Z"/>
              <path class="cls-6" d="M109.24,245.73v.13c-.7,.2-1.46,.41-2.26,.63v.21h-3.23v-.97h5.49Z"/>
            </g>
            <g>
              <rect class="cls-6" x="73.06" y="243.96" width=".97" height="5.49"/>
              <rect class="cls-6" x="73.06" y="243.96" width=".97" height="5.49" transform="translate(320.24 173.16) rotate(90)"/>
            </g>
            <g>
              <rect class="cls-6" x="53.75" y="164.7" width=".97" height="5.49"/>
              <rect class="cls-6" x="53.75" y="164.7" width=".97" height="5.49" transform="translate(221.68 113.21) rotate(90)"/>
            </g>
            <g>
              <rect class="cls-6" x="47.49" y="185.78" width=".97" height="5.49"/>
              <rect class="cls-6" x="47.49" y="185.78" width=".97" height="5.49" transform="translate(236.5 140.55) rotate(90)"/>
            </g>
            <g>
              <rect class="cls-6" x="42.56" y="205.36" width=".97" height="5.49"/>
              <rect class="cls-6" x="42.56" y="205.36" width=".97" height="5.49" transform="translate(251.15 165.05) rotate(90)"/>
            </g>
            <g>
              <rect class="cls-6" x="40.3" y="227.14" width=".97" height="5.49"/>
              <rect class="cls-6" x="40.3" y="227.14" width=".97" height="5.49" transform="translate(270.67 189.09) rotate(90)"/>
            </g>
            <rect class="cls-6" x="14.81" y="229.39" width="2.26" height=".97"/>
            <g>
              <rect class="cls-6" x="40.79" y="244.44" width=".97" height="5.49"/>
              <rect class="cls-6" x="40.79" y="244.44" width=".97" height="5.49" transform="translate(288.46 205.91) rotate(90)"/>
            </g>
            <g>
              <rect class="cls-6" x="27.45" y="235.66" width=".97" height="5.49"/>
              <rect class="cls-6" x="27.45" y="235.66" width=".97" height="5.49" transform="translate(266.34 210.47) rotate(90)"/>
            </g>
            <g>
              <rect class="cls-6" x="28.42" y="198.27" width=".97" height="5.49"/>
              <rect class="cls-6" x="28.42" y="198.27" width=".97" height="5.49" transform="translate(229.92 172.11) rotate(90)"/>
            </g>
            <g>
              <rect class="cls-6" x="27.94" y="217.16" width=".97" height="5.49"/>
              <rect class="cls-6" x="27.94" y="217.16" width=".97" height="5.49" transform="translate(248.32 191.49) rotate(90)"/>
            </g>
            <g>
              <rect class="cls-6" x="54.23" y="218.23" width=".97" height="5.49"/>
              <rect class="cls-6" x="54.23" y="218.23" width=".97" height="5.49" transform="translate(275.69 166.25) rotate(90)"/>
            </g>
            <g>
              <path class="cls-6" d="M67.32,177.57v2.99c-.03,.08-.05,.16-.07,.24-.23,.73-.45,1.49-.67,2.26h-.23v-5.49h.97Z"/>
              <path class="cls-6" d="M67.54,179.83c-.08,.24-.15,.48-.22,.73-.03,.08-.05,.16-.07,.24h-3.16v-.97h3.45Z"/>
            </g>
            <g>
              <rect class="cls-6" x="73.54" y="227.14" width=".97" height="5.49"/>
              <rect class="cls-6" x="73.54" y="227.14" width=".97" height="5.49" transform="translate(303.9 155.85) rotate(90)"/>
            </g>
            <g>
              <rect class="cls-6" x="90.67" y="236.14" width=".97" height="5.49"/>
              <rect class="cls-6" x="90.67" y="236.14" width=".97" height="5.49" transform="translate(330.04 147.73) rotate(90)"/>
            </g>
            <g>
              <rect class="cls-6" x="56.49" y="236.14" width=".97" height="5.49"/>
              <rect class="cls-6" x="56.49" y="236.14" width=".97" height="5.49" transform="translate(295.86 181.91) rotate(90)"/>
            </g>
            <g>
              <path class="cls-6" d="M57.46,254.9v2.75c-.33,.05-.65,.1-.97,.14v-2.89h.97Z"/>
              <path class="cls-6" d="M59.72,257.16v.15c-.76,.12-1.52,.24-2.26,.34-.33,.05-.65,.1-.97,.14-.77,.11-1.52,.21-2.26,.3v-.93h5.49Z"/>
            </g>
          </g>
          <g>
            <path class="cls-8" d="M101.72,235.34c-1.49-2.85-3.01-5.69-4.51-8.54-1.47-2.79-2.96-5.57-4.46-8.34-1.55-2.87-3.18-5.73-4.43-8.75-.02-.06,.06-.11,.09-.05,1.88,2.48,3.43,5.22,4.98,7.91,1.6,2.79,3.16,5.61,4.71,8.44,1.52,2.77,2.98,5.56,4.42,8.37,1.48,2.89,2.97,5.88,4.04,8.95,.04,.12-.13,.24-.21,.12-1.73-2.57-3.21-5.38-4.64-8.12Z"/>
            <path class="cls-8" d="M46.02,222.49l11.18-5.93,.02-.02v-.02c.32-1.07,9.34-34.96,13.38-46.2,.22-.62,.46-1.25,.7-1.92,1.16-3.11,2.75-7.22,4.51-11.66l-29.78,65.73Z"/>
            <path class="cls-8" d="M36.77,227.41c3.1-2.32,6.45-4.39,9.82-6.3,1.69-.95,3.4-1.83,5.17-2.62,1.88-.84,3.87-1.45,5.73-2.29,.14-.06,.25,.16,.1,.22-1.74,.79-3.4,1.89-5.09,2.81-1.75,.96-3.51,1.89-5.28,2.81-3.48,1.79-6.91,3.69-10.37,5.52-.08,.04-.17-.08-.09-.14Z"/>
          </g>
        </g>
      </g>
      <g>
        <g>
          <path class="cls-3" d="M44.9,218.73c2.81,.04,19.74-4.49,22.21-2.16,15.03,14.17,19.79,11.32,22.99,13.16,24.77,14.25,57.85,30.99,69.66,31.1,17.91,.15,25.04-14.88,22.06-29.08-5.88-28.07-43.74-82.8-60.87-97.34-9.08-7.7-8.36,3.91-4.61,16.54,2.2,7.4,6.06,18.41,9.99,29.21,3.48,9.62,12.71,34.2,12.87,34.78v.02s.03,.05,.03,.07c.01,.07-.05,.08-.2,.04-.79-.14-21.97-10.13-43.27-15.61-7.51-1.93-23.14-4.69-28.74-2.18-3.33,1.49-3.39,3.48-3.39,3.48,0,0-2.67-.24-5.49,2.08-1.87,1.54-2.45,3.72-2.45,3.72,0,0-2.92,.41-4.44,2.1-1.81,2.02-1.97,4.16-1.97,4.16-3.94,1.05-4.36,5.93-4.36,5.93Z"/>
          <g>
            <path class="cls-3" d="M69.93,200.14c2.26,.03,4.46,.36,6.68,.75,.15,.03,.14,.26-.01,.24-2.18-.24-4.38-.29-6.58-.36-2.18-.07-4.39-.12-6.57-.08-.01,0-.02-.02,0-.02,2.17-.36,4.27-.56,6.48-.53Z"/>
            <path class="cls-3" d="M55.75,206.4c3.88-1.07,6.97-1.65,11.84-1.04,.16,.02,.14,.25-.01,.24-4.63-.29-7.65,.18-11.82,.89-.05,0-.05-.07,0-.08Z"/>
            <path class="cls-3" d="M49.31,212.66c3.89-1.6,6.88-2.1,11.2-2.1,.15,0,.2,.22,.04,.24-4.14,.39-7.17,.99-11.19,2.03-.1,.03-.15-.13-.06-.17Z"/>
            <path class="cls-3" d="M96.79,199.69c1.86,.24,3.72,.79,5.54,1.24,1.94,.48,3.87,1,5.77,1.63,3.8,1.25,7.49,2.76,11.14,4.42,.14,.06,.07,.28-.08,.23-3.71-1.3-7.45-2.52-11.2-3.7-1.84-.58-3.68-1.2-5.51-1.8-1.88-.62-3.85-1.08-5.7-1.79-.13-.05-.09-.25,.05-.24Z"/>
          </g>
        </g>
        <g>
          <path class="cls-7" d="M111.61,203.71c-3.92-1.33-5.69-1.33-5.69-1.33l-22.29,37.64s61.39,22.1,73.99,23.39c12.6,1.29,26.94-8.63,27.18-24.46,.34-22.24-35.93-75.65-54.17-96.3-8.36-9.47-18.11-16.34-20.6-14.79-2.94,1.83,2.4,13.73,5.21,22.61,5.19,16.39,23.78,64.59,23.78,64.59,0,0-22.75-9.77-27.42-11.35Z"/>
          <path class="cls-6" d="M142.27,181.99h-.97v5.49h.97v-5.49Zm2.26,3.23v-.97h-5.49v.97h5.49Zm-33.02-45.56c.15,.46,.31,.92,.47,1.38v-1.38h-.47Zm.78,2.26c.11,.32,.23,.65,.34,.97h1.61v-.97h-1.95Zm17.43,4.53h-.97v5.49h.97v-5.49Zm2.26,3.23v-.97h-5.49v.97h5.49Zm-12.32,61.16h-.97v5.49h.97v-5.49Zm2.26,3.23v-.97h-5.49v.97h5.49Zm27.97-3.71h-.97v5.49h.97v-5.49Zm2.26,3.23v-.97h-5.49v.97h5.49Zm-16.46,29.4h-.97v5.49h.97v-5.49Zm2.26,3.23v-.97h-5.49v.97h5.49Zm-37.6-26.31h-.97v5.49h.97v-5.49Zm2.26,3.23v-.97h-5.49v.97h5.49Zm31.62-24.64v4.04c.19,.5,.38,.98,.56,1.45h.41v-5.49h-.97Zm-.67,2.26c.12,.33,.25,.66,.37,.97h3.53v-.97h-3.9Zm16.81,33.13h-.97v5.49h.97v-5.49Zm2.26,3.23v-.97h-5.49v.97h5.49Zm-17.43-14.46h-.97v5.49h.97v-5.49Zm2.26,3.23v-.97h-5.49v.97h5.49Zm-20.55,6.75h-.97v5.49h.97v-5.49Zm2.26,3.23v-.97h-5.49v.97h5.49Zm-12.19,7.62h-.97v5.49h.97v-5.49Zm2.26,3.23v-.97h-5.49v.97h5.49Zm-17.6-10.56h-.97v5.49h.97v-5.49Zm2.26,3.23v-.97h-5.49v.97h5.49Zm69.96-40.34h-.97v5.49h.97v-5.49Zm2.26,3.23v-.97h-5.49v.97h5.49Zm-19.88-39.82h-.06v5.49h.97v-4.23c-.31-.42-.61-.85-.91-1.26Zm1.62,2.26h-3.94v.97h4.63c-.23-.33-.46-.65-.69-.97Zm10.03,14.68v.94h.61c-.2-.32-.41-.63-.61-.94Zm8.71,62.56h-.97v5.49h.97v-5.49Zm2.26,3.23v-.97h-5.49v.97h5.49Zm8.93,9.73v.89c.29-.29,.57-.58,.84-.89h-.84Zm-2.26,2.26v.68c.28-.22,.55-.45,.82-.68h-.82Zm5.97-24.34h-.97v5.49h.97v-5.49Zm2.26,3.23v-.97h-5.49v.97h5.49Zm-18.27-15.1h-.97v5.49h.97v-5.49Zm2.26,3.23v-.97h-5.49v.97h5.49Zm-16.08,32.98v5.08c.33,.08,.66,.16,.97,.23v-5.31h-.97Zm3.23,3.23v-.97h-5.49v.97h5.49Z"/>
          <polygon class="cls-1" points="129.23 169.71 129.23 170.67 126.97 170.67 126.97 172.93 126 172.93 126 170.67 123.74 170.67 123.74 169.71 126 169.71 126 167.45 126.97 167.45 126.97 169.71 129.23 169.71"/>
          <g>
            <path class="cls-8" d="M106.12,202.34c3.46,.2,18.41,5.41,25.74,8.56,7.31,3.14,14.33,6.86,20.93,11.31,3.73,2.52,7.27,5.26,10.77,8.09,.12,.1-.01,.29-.14,.2-6.45-4.61-13.33-8.72-20.3-12.49-6.93-3.75-14-7.3-21.35-10.17-4.18-1.63-11.38-4.07-15.47-5.15-1.16-.3-.29-.36-.18-.35Z"/>
            <path class="cls-8" d="M120.83,169.43c.94,1.51,1.88,3.01,2.68,4.6,.04,.07,.07,.15,.11,.22-1.19-3.61-2.31-7.23-3.39-10.88-.07-.22,.3-.34,.39-.13,5.27,13.36,10.17,26.88,14.92,40.44,1.33,3.79,2.49,7.62,3.7,11.45,.04,.13-.17,.2-.23,.07-1.45-3.28-2.91-6.54-4.24-9.88-1.33-3.34-2.56-6.72-3.8-10.08-2.18-5.89-4.26-11.81-6.26-17.76-.63-1.04-1.26-2.08-1.85-3.14-.86-1.55-1.57-3.17-2.29-4.78-.08-.18,.17-.28,.26-.13Z"/>
            <path class="cls-8" d="M98.56,231.81c1.63-2.77,3.24-5.56,4.87-8.34,1.59-2.72,3.17-5.45,4.73-8.19,1.62-2.83,3.19-5.73,5.09-8.38,.04-.05,.12,0,.1,.05-1.11,2.91-2.62,5.67-4.09,8.41-1.53,2.84-3.1,5.65-4.68,8.46-1.55,2.75-3.15,5.47-4.78,8.17-1.67,2.78-3.42,5.63-5.47,8.16-.08,.1-.27,.02-.21-.11,1.27-2.82,2.87-5.56,4.44-8.23Z"/>
            <path class="cls-8" d="M82.74,240.09c1.85-3.65,4.73-7.23,6.86-10.69,.08-.13,.28,0,.2,.14-1.93,3.25-3.71,6.76-5.55,10.07,8.43,3.48,17.38,6.58,25.98,9.63,8.82,3.13,17.71,6.09,26.71,8.69,5.03,1.45,10.07,3.02,15.14,4.35,.31,.08,.23,.34-.09,.28-9.11-1.71-18.05-4.35-26.87-7.14-8.99-2.85-17.87-6.04-26.7-9.34-4.97-1.86-15.81-5.68-15.66-5.97Z"/>
          </g>
        </g>
        <g>
          <path class="cls-3" d="M97.36,199.72c11.59,2.97,24.93,7.85,30.91,10.19,.16,.05,.3,.11,.44,.16,5.26,2.07,8.53,3.6,9.31,3.73,.07-.03,.12-.08,.17-.11v-.02c.55-.39,1.09-.69,1.63-.9,1.48-.53,15.75-2.31,15.39-6.73-.35-4.37-6.16-4.1-7.01-4.04,.92-.2,8.67-2.02,6.14-5.88-1.78-2.74-9.45-2.34-10.22-2.31,.78-.26,7.89-2.58,5.45-6.52-1.75-2.82-10.31-2.46-11.3-2.29,.8-.3,7.14-1.37,4.18-4.77-2.05-2.37-18.17,.04-25.33,3.62-10.65,5.32-19.75,15.85-19.75,15.85Z"/>
          <g>
            <path class="cls-3" d="M128.27,209.91c.16,.05,.3,.11,.44,.16,2.47-1.92,11.83-6.88,19.19-7.82,.46-.06,.49-.32,0-.3-9.08,.41-17.24,5.76-19.63,7.96Z"/>
            <path class="cls-3" d="M143.76,194.12c-10.15,2.01-14.74,4.26-23.47,9.8-.12,.08-.26-.1-.14-.19,8.14-6.09,13.2-9.11,23.52-9.87,.47-.03,.55,.17,.09,.26Z"/>
            <path class="cls-3" d="M137.95,185.23c-9.74,2.59-14.87,4.83-22.72,11.18-.18,.15-.41-.08-.24-.24,7.39-7.17,13.78-10.01,22.86-11.2,.62-.08,.71,.11,.09,.27Z"/>
          </g>
        </g>
      </g>
      <g>
        <g>
          <path class="cls-3" d="M90.01,142.74c5.87,1.77,16.64-6.71,21.12-13.84,.3-.49-.15-5.87-.39-12.42-.13-3.98-.18-8.42,.06-12.47l-25.78,4.64s1.98,8.64,1.51,15.7c-.05,.59-.14,1.14-.28,1.65-.01,.08-.04,.17-.05,.27-.71,3.13-1.87,14.76,3.8,16.47Z"/>
          <path class="cls-4" d="M86.21,126.27c-.04,.17-.08,.36-.1,.57,15.5-1.48,21.05-8.62,24.53-15.37-.01-2.5,.02-5.04,.18-7.46l-25.78,4.63s1.99,8.65,1.51,15.7c-.04,.59-.14,1.13-.28,1.65-.01,.07-.02,.17-.05,.27Z"/>
        </g>
        <g>
          <path class="cls-3" d="M116.12,71.38c3.2,8.88-.27,35.15-6.4,41.27-8.88,8.88-24.05,10.43-31.75-.38-7.47-10.48-2.34-44.64,4.56-50.27,10.16-8.29,28.87-3.73,33.59,9.39Z"/>
          <g>
            <g>
              <path class="cls-5" d="M94.74,87.12c.02-.07,.13,.1,.12,.17-.28,1.76-.31,3.83,1.22,4.62,.05,.02,.03,.11-.03,.1-1.92-.52-1.86-3.27-1.31-4.89Z"/>
              <path class="cls-5" d="M96.56,85.47c2.88,.15,2.37,5.89-.29,5.75-2.62-.13-2.12-5.87,.29-5.75Z"/>
            </g>
            <g>
              <path class="cls-5" d="M83.91,86.07c0-.07-.15,.07-.15,.14-.1,1.78-.51,3.81-2.17,4.26-.05,.01-.05,.1,0,.1,1.99-.1,2.51-2.8,2.32-4.5Z"/>
              <path class="cls-5" d="M82.48,84.07c-2.84-.47-3.57,5.25-.94,5.68,2.59,.43,3.32-5.29,.94-5.68Z"/>
            </g>
            <path class="cls-5" d="M99.06,83.05c-.76-.27-1.43-.64-2.15-.98-.82-.38-1.52-.61-2.01-1.42-.26-.43-.07-1.16,.32-1.45,.93-.69,2.05-.47,3.06-.04,1.09,.46,1.82,1.09,2.38,2.14,.54,1.01-.6,2.1-1.6,1.75Z"/>
            <path class="cls-5" d="M80.52,80.99c.81-.06,1.54-.25,2.33-.39,.89-.16,1.62-.2,2.3-.85,.37-.35,.37-1.1,.06-1.49-.72-.9-1.86-.98-2.95-.83-1.18,.16-2.04,.59-2.85,1.45-.78,.84,.04,2.19,1.1,2.11Z"/>
            <path class="cls-5" d="M93.94,103.48c-.46,.38-.94,.91-1.59,.91-.62,0-1.32-.34-1.87-.61-.05-.03-.12,.03-.08,.08,.4,.72,1.34,1.24,2.17,1.16,.82-.07,1.28-.73,1.54-1.45,.04-.1-.1-.15-.16-.1Z"/>
            <path class="cls-5" d="M92.54,97.99c-1.13,1.46-2.67,2.17-4.28,2.34-.72,.08-1.46,.04-2.19-.09-.14-.02-.28-.04-.41-.08-.13-.03-.24-.05-.38-.09-.21-.05-.3-.23-.32-.43h0c0-.08,.01-.13,.03-.19h0s.02-.17,.02-.17c.08-1.37,.4-3.44,.4-3.44-.52,.21-3.17,1.13-3.07,.42,.87-5.89,1.84-12.44,3.96-18.12,.06-.19,.35-.12,.32,.07-.61,5.69-2.23,11.24-2.93,16.95,.84-.24,2.22-.69,2.93-.62,.19,.07-.68,3.99-.67,4.61,0,0,0,.03,0,.07,2.27,.5,4.07-.05,6.44-1.4,.14-.09,.27,.04,.15,.17Z"/>
            <g>
              <path class="cls-5" d="M87.03,99.95s1.1,1.67,2.69,2.34c.59,.25,1.23,.37,1.92,.23,1.41-.29,1.52-1.56,1.32-2.67-.16-.91-.53-1.71-.53-1.71,0,0-2.14,1.79-5.4,1.8Z"/>
              <path class="cls-2" d="M89.72,102.29c.59,.25,1.23,.37,1.92,.23,1.41-.29,1.52-1.56,1.32-2.67-1.5,.07-3.03,1-3.24,2.44Z"/>
            </g>
          </g>
          <g>
            <path class="cls-5" d="M113.9,92.76c-4.67-.53-3.6-11.97-3.6-11.97,0,0-7.08-1.67-10.05-11.68,0,0-9.51,5.28-17.16,3.46-11.98-2.85-10.8-18.55-6.1-21.51,6.66-4.19,17.73,3.04,17.73,3.04,0,0,17.56-3.88,22.07,8.1,0,0,7.69,.75,7.77,9.3,.07,8.55-7.18,21.65-10.66,21.26Z"/>
            <path class="cls-5" d="M111.91,82.23c-3.4-.86-6.59-2.63-8.77-5.43-2.25-2.89-3.41-7.2-2.18-10.74,.07-.19-.25-.28-.31-.08-1.08,3.95-1.06,8.07,1.3,11.58,2.16,3.22,5.99,5.35,9.91,5.01,.19-.02,.25-.29,.05-.34Z"/>
            <path class="cls-5" d="M125.45,66.55c-2.21-3.15-5.83-3.82-9.43-3.89-.21,0-.2,.33,0,.32,3.56-.21,7,2.34,8.68,5.34,1.65,2.94,1.05,6.49,.15,9.58-1.73,5.94-5.56,11.17-10.84,14.42-.09,.05,0,.19,.08,.14,5.98-3.36,10.52-9.09,12.15-15.78,.79-3.26,1.26-7.23-.78-10.14Z"/>
            <path class="cls-5" d="M95.17,54.7c-1.5-2.57-3.58-4.48-6.37-5.45-3.21-1.12-6.98-.88-10.09,.48-2.64,1.15-4.21,3.71-4.56,6.57-.39,3.27,.97,6.43,2.68,9.1,.05,.08,.17,0,.12-.07-1.36-2.51-2.37-5.32-2.03-8.24,.33-2.89,2-5.24,4.68-6.26,5.08-1.94,12.32-1.18,15.3,4.05,.1,.18,.37,.02,.27-.16Z"/>
          </g>
          <g>
            <path class="cls-3" d="M111.6,92.87s5.64-8.6,9.53-6.61c3.89,1.99-.19,14.33-4.63,16.14-4.44,1.8-6.19-2.27-6.19-2.27l1.29-7.25Z"/>
            <path class="cls-5" d="M119.88,89.77c.07,0,.09,.09,.03,.12-3.11,1.37-4.68,4.33-5.75,7.39,.9-1.19,2.16-1.87,3.75-.8,.08,.06,0,.19-.08,.17-1.3-.24-2.22,.01-3.06,1.07-.6,.75-.99,1.69-1.41,2.54-.14,.29-.65,.15-.55-.18,0-.02,.02-.05,.02-.07-.2-4.01,2.76-9.72,7.05-10.25Z"/>
          </g>
        </g>
      </g>
    </g>
  </g>
</svg>