<svg id="Layer_1" fill='#1E222F' data-name="Layer 1" xmlns="http://www.w3.org/2000/svg" viewBox="0 0 64 64"><title>contact</title><path d="M52.47,13h-.76A3.71,3.71,0,0,0,48,16.71V17a8,8,0,0,1-8,8H24a8,8,0,0,1-8-8v-.3A3.71,3.71,0,0,0,12.29,13h-.76A7.53,7.53,0,0,0,4,20.53V49.47A7.53,7.53,0,0,0,11.53,57H52.47A7.53,7.53,0,0,0,60,49.47V20.53A7.53,7.53,0,0,0,52.47,13ZM25.42,46.58H14.64a2.2,2.2,0,0,1-2.13-2.85,8.27,8.27,0,0,1,5.12-5.3.55.55,0,0,0,.09-1A4.52,4.52,0,0,1,20,29a4.62,4.62,0,0,1,4.5,5,4.51,4.51,0,0,1-2.21,3.41.55.55,0,0,0,.09,1,8.26,8.26,0,0,1,5.16,5.31A2.21,2.21,0,0,1,25.42,46.58Zm16.58,0H34a2,2,0,0,1,0-4h8a2,2,0,0,1,0,4Zm8,0a2,2,0,1,1,2-2A2,2,0,0,1,50,46.58ZM50,37H34a2,2,0,0,1,0-4H50a2,2,0,0,1,0,4Z"/><rect x="20" y="7" width="24" height="14" rx="5.54" ry="5.54"/></svg>